<svg width="14" height="12" viewBox="0 0 14 12" fill="none" xmlns="http://www.w3.org/2000/svg">
<path d="M0.5625 2.37214e-05C0.413316 2.37214e-05 0.270242 0.0592871 0.164752 0.164776C0.0592632 0.270265 0 0.413339 0 0.562524C0 0.711708 0.0592632 0.854782 0.164752 0.960271C0.270242 1.06576 0.413316 1.12502 0.5625 1.12502H1.81125L3.28725 7.03127C3.41269 7.5319 3.861 7.87502 4.37681 7.87502H11.3912C11.8991 7.87502 12.3306 7.53752 12.4639 7.04815L13.9219 1.68752H12.744L11.3906 6.75002H4.37625L2.90081 0.843774C2.83986 0.601465 2.69937 0.386618 2.50182 0.233638C2.30427 0.0806577 2.0611 -0.00160478 1.81125 2.37214e-05H0.5625ZM10.6875 7.87502C9.76219 7.87502 9 8.63721 9 9.56252C9 10.4878 9.76219 11.25 10.6875 11.25C11.6128 11.25 12.375 10.4878 12.375 9.56252C12.375 8.63721 11.6128 7.87502 10.6875 7.87502ZM5.625 7.87502C4.69969 7.87502 3.9375 8.63721 3.9375 9.56252C3.9375 10.4878 4.69969 11.25 5.625 11.25C6.55031 11.25 7.3125 10.4878 7.3125 9.56252C7.3125 8.63721 6.55031 7.87502 5.625 7.87502ZM7.3125 2.37214e-05V2.81252H5.625L7.875 5.06252L10.125 2.81252H8.4375V2.37214e-05H7.3125ZM5.625 9.00002C5.94225 9.00002 6.1875 9.24527 6.1875 9.56252C6.1875 9.87977 5.94225 10.125 5.625 10.125C5.30775 10.125 5.0625 9.87977 5.0625 9.56252C5.0625 9.24527 5.30775 9.00002 5.625 9.00002ZM10.6875 9.00002C11.0048 9.00002 11.25 9.24527 11.25 9.56252C11.25 9.87977 11.0048 10.125 10.6875 10.125C10.3702 10.125 10.125 9.87977 10.125 9.56252C10.125 9.24527 10.3702 9.00002 10.6875 9.00002Z" fill="#2B7B4C"/>
</svg>
