<svg width="18" height="18" viewBox="0 0 18 18" fill="none" xmlns="http://www.w3.org/2000/svg">
<path d="M16.0095 5.48325C15.9511 5.4196 15.9187 5.33637 15.9187 5.25C15.9187 5.16362 15.9511 5.08039 16.0095 5.01675L16.7617 4.212C16.9666 3.99988 17.0943 3.72513 17.1243 3.43178C17.1544 3.13844 17.0851 2.84349 16.9275 2.59425C16.7878 2.34469 16.5702 2.14775 16.308 2.03357C16.0458 1.9194 15.7534 1.89425 15.4755 1.962L14.415 2.21025C14.3304 2.22973 14.2416 2.21662 14.1663 2.17353C14.0909 2.13044 14.0346 2.06053 14.0085 1.97775L13.6927 0.961497C13.4078 -0.0232525 12.1628 -0.329253 11.4532 0.410247C11.3033 0.565497 11.1945 0.755247 11.1345 0.961497L10.8187 2.007C10.7928 2.08992 10.7365 2.16 10.6612 2.20324C10.5858 2.24648 10.4969 2.2597 10.4122 2.24025L9.35175 1.99275C9.07723 1.92227 8.78725 1.9428 8.52541 2.05127C8.26356 2.15974 8.04401 2.35028 7.89975 2.59425C7.75066 2.84114 7.68679 3.13016 7.71796 3.41688C7.74912 3.7036 7.8736 3.97216 8.07225 4.18125L8.82525 4.98675C8.94525 5.11875 8.94525 5.3205 8.82525 5.45325L8.073 6.258C7.8777 6.46777 7.75479 6.73463 7.72231 7.0194C7.68984 7.30417 7.74951 7.59185 7.89257 7.84022C8.03563 8.08858 8.25454 8.28453 8.51717 8.39932C8.77979 8.51411 9.0723 8.54169 9.35175 8.478L10.4122 8.2365C10.497 8.21516 10.5868 8.22755 10.6626 8.27106C10.7384 8.31457 10.7944 8.38579 10.8187 8.46975L11.1345 9.51525C11.2199 9.78749 11.39 10.0254 11.62 10.1942C11.85 10.3631 12.1279 10.4542 12.4132 10.4542C12.6986 10.4542 12.9765 10.3631 13.2065 10.1942C13.4365 10.0254 13.6066 9.78749 13.692 9.51525L14.0085 8.46975C14.033 8.38593 14.0891 8.31488 14.1649 8.27153C14.2407 8.22817 14.3303 8.21588 14.415 8.23725L15.4755 8.47725C15.7551 8.5415 16.0479 8.5143 16.3109 8.39965C16.5738 8.285 16.7931 8.08895 16.9362 7.84037C17.0794 7.59178 17.139 7.3038 17.1063 7.0188C17.0735 6.7338 16.9501 6.46685 16.7542 6.25725L16.0095 5.48325ZM12.414 7.50675C10.6763 7.50675 9.59025 5.62575 10.4587 4.12125C11.3272 2.61675 13.4992 2.61675 14.3685 4.12125C14.5664 4.46437 14.6706 4.85353 14.6705 5.24965C14.6704 5.64577 14.5661 6.03489 14.3681 6.37795C14.17 6.721 13.8852 7.0059 13.5422 7.20404C13.1992 7.40218 12.8101 7.50657 12.414 7.50675ZM0.75225 10.6815C0.33675 10.6815 0 11.019 0 11.4337V16.8885C0 17.0881 0.0792942 17.2795 0.220439 17.4207C0.361583 17.5618 0.553016 17.6411 0.752625 17.6411C0.952234 17.6411 1.14367 17.5618 1.28481 17.4207C1.42596 17.2795 1.50525 17.0881 1.50525 16.8885V11.4337C1.50525 11.0182 1.16775 10.6815 0.75225 10.6815ZM11.6617 14.2552H4.8C4.73326 14.2637 4.66549 14.2578 4.60119 14.2381C4.53689 14.2183 4.47753 14.1851 4.42707 14.1406C4.3766 14.0961 4.33619 14.0414 4.3085 13.9801C4.28081 13.9188 4.26649 13.8523 4.26649 13.785C4.26649 13.7177 4.28081 13.6512 4.3085 13.5899C4.33619 13.5286 4.3766 13.4739 4.42707 13.4294C4.47753 13.3849 4.53689 13.3517 4.60119 13.3319C4.66549 13.3122 4.73326 13.3063 4.8 13.3147H6.696C7.2345 13.3147 7.59825 12.765 7.38825 12.2692C7.25906 11.9652 7.04309 11.706 6.76735 11.524C6.49162 11.3421 6.16836 11.2455 5.838 11.2462H2.63325C2.58388 11.2461 2.53497 11.2558 2.48934 11.2746C2.44371 11.2935 2.40225 11.3212 2.36733 11.3561C2.33242 11.391 2.30475 11.4325 2.2859 11.4781C2.26705 11.5237 2.2574 11.5726 2.2575 11.622V16.512C2.2575 16.7197 2.4255 16.8885 2.63325 16.8885H10.7288C11.1757 16.8885 11.6044 16.7109 11.9204 16.3949C12.2364 16.0789 12.414 15.6502 12.414 15.2032V15.0082C12.414 14.592 12.0772 14.2552 11.6617 14.2552Z" fill="#2B7B4C"/>
</svg>
