<svg width="27" height="33" viewBox="0 0 27 33" fill="none" xmlns="http://www.w3.org/2000/svg">
<path d="M22.2142 11.5H19.1667V1.91667C19.1667 0.8625 18.3042 0 17.25 0H9.58333C8.52917 0 7.66667 0.8625 7.66667 1.91667V11.5H4.61917C2.91333 11.5 2.05083 13.57 3.25833 14.7775L12.0558 23.575C12.8033 24.3225 14.0108 24.3225 14.7583 23.575L23.5558 14.7775C24.7633 13.57 23.92 11.5 22.2142 11.5ZM0 30.6667C0 31.7208 0.8625 32.5833 1.91667 32.5833H24.9167C25.9708 32.5833 26.8333 31.7208 26.8333 30.6667C26.8333 29.6125 25.9708 28.75 24.9167 28.75H1.91667C0.8625 28.75 0 29.6125 0 30.6667Z" fill="white"/>
</svg>
