<svg width="27" height="27" viewBox="0 0 27 27" fill="none" xmlns="http://www.w3.org/2000/svg">
<g clip-path="url(#clip0_523_4079)">
<path d="M6.1875 14.0629L14.0625 15.1879H20.8125L21.9375 13.5004L21.375 11.8129L22.5 10.1254L21.375 8.43789L22.5 6.75039L21.375 5.06289H15.75M6.1875 8.43789L10.125 7.31289L11.8125 3.93789L14.5125 2.58789M18.5625 18.5629H16.3125L15.75 19.6879L16.3125 20.8129H18.5625L19.125 21.9379L18.5625 23.0629H16.3125M17.4375 18.5629V17.4379M17.4375 24.1879V23.0629" stroke="white" stroke-width="1.5" stroke-miterlimit="10" stroke-linecap="round" stroke-linejoin="round"/>
<path d="M20.25 15.1875L24.1875 18.5625V24.1875L17.4375 26.4375L10.6875 24.1875V18.5625L14.0625 15.1875" stroke="white" stroke-width="1.5" stroke-miterlimit="10" stroke-linejoin="round"/>
<path d="M13.5 0.5625L15.75 5.0625H19.125L21.375 0.5625H13.5ZM6.1875 7.3125H2.8125V15.1875H6.1875V7.3125Z" stroke="white" stroke-width="1.5" stroke-miterlimit="10" stroke-linecap="round" stroke-linejoin="round"/>
</g>
<defs>
<clipPath id="clip0_523_4079">
<rect width="27" height="27" fill="white"/>
</clipPath>
</defs>
</svg>
